<svg width="37" height="37" viewBox="0 0 37 37" fill="none" xmlns="http://www.w3.org/2000/svg">
<path fill-rule="evenodd" clip-rule="evenodd" d="M11.1771 29.4844C11.0238 29.4844 10.8767 29.5453 10.7683 29.6537C10.6599 29.7621 10.599 29.9092 10.599 30.0625C10.599 30.2158 10.6599 30.3629 10.7683 30.4713C10.8767 30.5797 11.0238 30.6406 11.1771 30.6406C11.3304 30.6406 11.4775 30.5797 11.5859 30.4713C11.6943 30.3629 11.7552 30.2158 11.7552 30.0625C11.7552 29.9092 11.6943 29.7621 11.5859 29.6537C11.4775 29.5453 11.3304 29.4844 11.1771 29.4844ZM13.4896 30.0625C13.4896 31.3375 12.452 32.375 11.1771 32.375C9.90213 32.375 8.86459 31.3375 8.86459 30.0625C8.86459 28.7875 9.90213 27.75 11.1771 27.75C12.452 27.75 13.4896 28.7875 13.4896 30.0625ZM30.0625 30.7493C30.2158 30.7493 30.3629 30.6884 30.4713 30.58C30.5797 30.4716 30.6406 30.3245 30.6406 30.1712C30.6406 30.0179 30.5797 29.8708 30.4713 29.7624C30.3629 29.654 30.2158 29.5931 30.0625 29.5931C29.9092 29.5931 29.7621 29.654 29.6537 29.7624C29.5453 29.8708 29.4844 30.0179 29.4844 30.1712C29.4844 30.3245 29.5453 30.4716 29.6537 30.58C29.7621 30.6884 29.9092 30.7493 30.0625 30.7493ZM30.0625 27.7431C31.3375 27.7431 32.375 28.7806 32.375 30.0556C32.375 31.3305 31.3375 32.3681 30.0625 32.3681C28.7875 32.3681 27.75 31.3305 27.75 30.0556C27.75 28.7806 28.7875 27.7431 30.0625 27.7431ZM8.5154 19.4836L12.4975 19.6092L12.3395 15.0312H7.27127L7.45242 18.4083C7.4925 18.9902 7.96117 19.452 8.5154 19.4836ZM24.7414 18.3744L25.4599 15.0312H20.4263V19.8597L24.6582 19.9931C24.6143 19.4574 24.6351 18.9139 24.7414 18.3744ZM22.3542 10.0208H20.4271V13.875H25.7096L26.6531 9.48433C25.5986 9.7865 24.1965 10.0208 22.3542 10.0208ZM13.4973 15.0312L13.6561 19.6455L19.2708 19.8227V15.0312H13.4973ZM13.3239 10.0208L13.4572 13.875H19.2708V10.0208H13.3239ZM7.20884 13.875H12.2994L12.1668 10.0208H7.00148L7.20884 13.875ZM4.94181 8.06908C5.04989 7.95508 5.18007 7.8643 5.32439 7.80228C5.46872 7.74025 5.62416 7.70829 5.78125 7.70833H22.3542C25.032 7.70833 26.5336 7.15565 27.232 6.79335L27.2975 6.48888C27.413 5.96237 27.7043 5.49088 28.1235 5.15209C28.5427 4.81329 29.0648 4.62738 29.6039 4.625H32.375V6.9375L29.5591 6.9745L27.0061 18.8392C26.913 19.3134 26.92 19.8018 27.0266 20.2731C27.1332 20.7445 27.3371 21.1884 27.6251 21.5764L29.0404 23.3963C29.3523 23.794 29.5454 24.2718 29.5975 24.7745C29.6496 25.2772 29.5586 25.7844 29.3348 26.2376C29.1143 26.6927 28.7697 27.0762 28.3406 27.3438C27.9115 27.6114 27.4155 27.7522 26.9098 27.75H8.90313V25.4375H26.9098C26.9824 25.4397 27.0541 25.4203 27.1158 25.3819C27.1775 25.3435 27.2265 25.2878 27.2567 25.2217C27.2903 25.1574 27.3043 25.0846 27.297 25.0124C27.2898 24.9402 27.2615 24.8718 27.2158 24.8154L25.7882 22.9801C25.6325 22.7727 25.4969 22.553 25.3712 22.3287L8.41519 21.7938C7.56798 21.745 6.76783 21.3881 6.16543 20.7904C5.56303 20.1927 5.19994 19.3954 5.14454 18.5486L4.62654 8.92702C4.61817 8.77011 4.6418 8.61314 4.696 8.46565C4.7502 8.31816 4.83383 8.18323 4.94181 8.06908Z" fill="black"/>
</svg>
