<svg width="24" height="24" viewBox="0 0 24 24" fill="none" xmlns="http://www.w3.org/2000/svg">
<path d="M12 0C5.373 0 0 5.373 0 12C0 18.627 5.373 24 12 24C18.627 24 24 18.627 24 12C24 5.373 18.627 0 12 0ZM12 3C16.9695 3 21 7.0305 21 12C21 16.9695 16.9695 21 12 21C7.0305 21 3 16.9695 3 12C3 7.0305 7.0305 3 12 3ZM17.562 10.9395C17.8545 11.232 18.0015 11.616 18.0015 12C18.0015 12.384 17.8545 12.768 17.562 13.0605L14.562 16.0605C14.133 16.4895 13.4865 16.617 12.9255 16.386C12.366 16.155 12 15.606 12 15V13.5H7.5C6.6705 13.5 6 12.8295 6 12C6 11.1705 6.6705 10.5 7.5 10.5H12V9C12 8.394 12.366 7.845 12.9255 7.614C13.488 7.383 14.133 7.512 14.562 7.9395L17.562 10.9395Z" fill="black"/>
</svg>
