<svg width="24" height="24" viewBox="0 0 24 24" fill="none" xmlns="http://www.w3.org/2000/svg">
<path d="M10.9458 15.3708L5.2958 9.71079C5.20207 9.61783 5.12768 9.50723 5.07691 9.38537C5.02614 9.26351 5 9.1328 5 9.00079C5 8.86878 5.02614 8.73807 5.07691 8.61622C5.12768 8.49436 5.20207 8.38376 5.2958 8.29079C5.48316 8.10454 5.73661 8 6.0008 8C6.26498 8 6.51844 8.10454 6.7058 8.29079L11.7058 13.2408L16.6558 8.29079C16.8432 8.10454 17.0966 8 17.3608 8C17.625 8 17.8784 8.10454 18.0658 8.29079C18.1603 8.38341 18.2355 8.49385 18.287 8.61573C18.3384 8.7376 18.3652 8.86849 18.3658 9.00079C18.3652 9.1331 18.3384 9.26398 18.287 9.38586C18.2355 9.50773 18.1603 9.61818 18.0658 9.71079L12.4158 15.3708C12.3222 15.4723 12.2085 15.5533 12.082 15.6087C11.9555 15.6641 11.8189 15.6927 11.6808 15.6927C11.5427 15.6927 11.4061 15.6641 11.2796 15.6087C11.1531 15.5533 11.0394 15.4723 10.9458 15.3708Z" fill="#00AD07"/>
</svg>
