<svg width="854" height="94" viewBox="0 0 854 94" fill="none" xmlns="http://www.w3.org/2000/svg">
<path d="M168.508 18.48C168.508 19.2907 168.338 20.1013 167.996 20.912L150.204 63.6C149.308 65.7333 147.964 66.8 146.172 66.8C145.063 66.8 144.188 66.4373 143.548 65.712C142.908 65.0293 142.588 64.1333 142.588 63.024C142.588 62.256 142.802 61.36 143.228 60.336L146.876 51.696L133.052 21.104C132.668 20.2507 132.476 19.4613 132.476 18.736C132.476 17.6267 132.818 16.688 133.5 15.92C134.183 15.152 135.079 14.768 136.188 14.768C137.767 14.768 139.047 15.8347 140.028 17.968L150.972 41.776H151.1L160.764 18.224C161.703 15.92 163.026 14.768 164.732 14.768C167.25 14.768 168.508 16.0053 168.508 18.48ZM204.187 44.464C204.187 49.4133 202.885 53.616 200.283 57.072C197.424 60.8693 193.605 62.768 188.827 62.768C185.328 62.768 182.427 61.4667 180.123 58.864H179.931V71.088C179.931 74.7147 178.629 76.528 176.027 76.528C173.296 76.528 171.931 74.7147 171.931 71.088V31.92C171.931 28.4213 173.275 26.672 175.963 26.672C177.669 26.672 178.821 27.4613 179.419 29.04C179.504 29.424 179.675 29.9573 179.931 30.64H179.995C181.829 27.9093 184.837 26.544 189.019 26.544C193.84 26.544 197.637 28.3787 200.411 32.048C202.928 35.3333 204.187 39.472 204.187 44.464ZM196.059 44.528C196.059 41.6267 195.461 39.216 194.267 37.296C192.859 34.992 190.789 33.84 188.059 33.84C185.328 33.84 183.195 34.9067 181.659 37.04C180.293 38.9173 179.611 41.2853 179.611 44.144V45.744C179.611 48.3467 180.336 50.5867 181.787 52.464C183.365 54.4693 185.435 55.472 187.995 55.472C190.768 55.472 192.88 54.2987 194.331 51.952C195.483 49.9893 196.059 47.5147 196.059 44.528ZM240.335 57.2C240.335 60.6987 239.034 62.448 236.431 62.448C234.81 62.448 233.765 61.744 233.295 60.336C233.167 59.7813 232.954 59.0133 232.655 58.032H232.527C230.223 61.0613 227.279 62.576 223.695 62.576C221.519 62.576 219.493 62.1493 217.615 61.296C214.373 59.8027 211.919 57.4987 210.255 54.384C208.719 51.5253 207.951 48.2187 207.951 44.464C207.951 40.7947 208.762 37.488 210.383 34.544C212.09 31.4293 214.543 29.1467 217.743 27.696C219.621 26.8427 221.541 26.416 223.503 26.416C227.087 26.416 230.117 27.824 232.591 30.64H232.655V30.576C232.783 30.1067 232.975 29.552 233.231 28.912C233.786 27.4187 234.853 26.672 236.431 26.672C239.034 26.672 240.335 28.4 240.335 31.856V57.2ZM224.271 33.904C221.498 33.904 219.407 35.0773 217.999 37.424C216.805 39.3867 216.207 41.84 216.207 44.784C216.207 47.5147 216.826 49.84 218.063 51.76C219.557 54.0213 221.583 55.152 224.143 55.152C226.959 55.152 229.093 54.0427 230.543 51.824C231.781 49.9467 232.399 47.5147 232.399 44.528C232.399 41.6267 231.802 39.216 230.607 37.296C229.157 35.0347 227.045 33.904 224.271 33.904ZM277.055 57.2C277.055 60.6987 275.733 62.448 273.087 62.448C270.399 62.448 269.055 60.6773 269.055 57.136V33.776H259.903C258.154 33.776 257.279 34.6507 257.279 36.4V53.424C257.279 55.984 256.703 58.0747 255.551 59.696C254.229 61.5307 252.33 62.448 249.855 62.448C247.893 62.448 246.549 62.32 245.823 62.064C244.373 61.5947 243.647 60.6133 243.647 59.12C243.647 57.7547 244.095 56.816 244.991 56.304C245.631 55.9627 246.719 55.792 248.255 55.792C248.81 55.792 249.237 55.024 249.535 53.488C249.706 52.6773 249.791 51.7173 249.791 50.608V36.08C249.791 32.7093 250.559 30.3413 252.095 28.976C253.631 27.568 256.106 26.864 259.519 26.864H273.279C275.797 26.864 277.055 28.5707 277.055 31.984V57.2ZM311.756 51.44C311.756 58.48 307.297 62 298.38 62H288.972C286.028 62 284.556 60.4213 284.556 57.264V31.536C284.556 28.2933 285.878 26.672 288.524 26.672C291.212 26.672 292.556 28.272 292.556 31.472V40.752C299.126 40.752 303.393 41.072 305.356 41.712C309.622 43.0773 311.756 46.32 311.756 51.44ZM297.292 46.64H292.556V56.24H297.292C301.473 56.24 303.564 54.64 303.564 51.44C303.564 48.24 301.473 46.64 297.292 46.64ZM331.966 26.416C334.313 26.416 336.489 26.8 338.494 27.568C341.182 28.592 342.526 30.064 342.526 31.984C342.526 34.2453 341.46 35.376 339.326 35.376C338.388 35.376 337.321 35.0987 336.126 34.544C334.932 33.9893 333.588 33.712 332.094 33.712C329.364 33.712 327.209 34.864 325.63 37.168C324.222 39.1733 323.518 41.6053 323.518 44.464C323.518 47.536 324.201 50.032 325.566 51.952C327.102 54.1707 329.342 55.28 332.286 55.28C333.353 55.28 334.74 54.96 336.446 54.32C338.153 53.6373 339.198 53.296 339.582 53.296C340.564 53.296 341.353 53.6373 341.95 54.32C342.548 54.96 342.846 55.7707 342.846 56.752C342.846 59.0133 340.884 60.7413 336.958 61.936C335.38 62.4053 333.652 62.64 331.774 62.64C326.654 62.64 322.601 60.8693 319.614 57.328C316.756 54 315.326 49.7333 315.326 44.528C315.326 39.408 316.798 35.1627 319.742 31.792C322.857 28.208 326.932 26.416 331.966 26.416ZM376.534 59.248C376.534 60.1867 376.172 60.9547 375.446 61.552C374.721 62.1493 373.868 62.448 372.886 62.448C371.436 62.448 370.049 61.7013 368.726 60.208L356.118 46V57.2C356.118 60.6987 354.774 62.448 352.086 62.448C349.441 62.448 348.118 60.6987 348.118 57.2V31.856C348.118 28.4 349.441 26.672 352.086 26.672C354.774 26.672 356.118 28.4213 356.118 31.92V39.984L367.638 28.528C368.918 27.248 370.198 26.608 371.478 26.608C372.46 26.608 373.27 26.928 373.91 27.568C374.593 28.1653 374.934 28.9547 374.934 29.936C374.934 31.1307 374.294 32.3253 373.014 33.52L363.03 42.8L374.934 55.28C376.001 56.3893 376.534 57.712 376.534 59.248ZM411.167 57.328C411.167 60.7413 409.845 62.448 407.199 62.448C404.511 62.448 403.167 60.7627 403.167 57.392V40.752L387.679 57.904C387.381 60.9333 386.079 62.448 383.775 62.448C381.087 62.448 379.743 60.7413 379.743 57.328V31.792C379.743 28.3787 381.087 26.672 383.775 26.672C386.421 26.672 387.743 28.3787 387.743 31.792V49.072L403.103 31.408C403.487 28.2507 404.874 26.672 407.263 26.672C409.866 26.672 411.167 28.3573 411.167 31.728V57.328ZM442.955 17.264C442.955 19.2267 441.867 20.8693 439.691 22.192C437.813 23.3013 435.808 23.856 433.675 23.856C431.627 23.856 429.621 23.28 427.659 22.128C425.44 20.8053 424.331 19.184 424.331 17.264C424.331 15.5147 425.227 14.64 427.019 14.64C427.957 14.64 429.003 15.28 430.155 16.56C431.307 17.84 432.48 18.48 433.675 18.48C434.955 18.48 436.128 17.84 437.195 16.56C438.304 15.28 439.307 14.64 440.203 14.64C442.037 14.64 442.955 15.5147 442.955 17.264ZM449.355 57.328C449.355 60.7413 448.032 62.448 445.387 62.448C442.699 62.448 441.355 60.7627 441.355 57.392V40.56L425.867 60.144C424.672 61.68 423.371 62.448 421.963 62.448C419.275 62.448 417.931 60.7413 417.931 57.328V31.792C417.931 28.3787 419.275 26.672 421.963 26.672C424.608 26.672 425.931 28.3787 425.931 31.792V49.072L441.291 29.296C442.656 27.5467 444.043 26.672 445.451 26.672C448.053 26.672 449.355 28.3573 449.355 31.728V57.328ZM490.154 26.416C492.5 26.416 494.676 26.8 496.682 27.568C499.37 28.592 500.714 30.064 500.714 31.984C500.714 34.2453 499.647 35.376 497.514 35.376C496.575 35.376 495.508 35.0987 494.314 34.544C493.119 33.9893 491.775 33.712 490.282 33.712C487.551 33.712 485.396 34.864 483.818 37.168C482.41 39.1733 481.706 41.6053 481.706 44.464C481.706 47.536 482.388 50.032 483.754 51.952C485.29 54.1707 487.53 55.28 490.474 55.28C491.54 55.28 492.927 54.96 494.634 54.32C496.34 53.6373 497.386 53.296 497.77 53.296C498.751 53.296 499.54 53.6373 500.138 54.32C500.735 54.96 501.034 55.7707 501.034 56.752C501.034 59.0133 499.071 60.7413 495.146 61.936C493.567 62.4053 491.839 62.64 489.962 62.64C484.842 62.64 480.788 60.8693 477.802 57.328C474.943 54 473.514 49.7333 473.514 44.528C473.514 39.408 474.986 35.1627 477.93 31.792C481.044 28.208 485.119 26.416 490.154 26.416ZM536.898 57.2C536.898 60.6987 535.596 62.448 532.994 62.448C531.372 62.448 530.327 61.744 529.858 60.336C529.73 59.7813 529.516 59.0133 529.218 58.032H529.09C526.786 61.0613 523.842 62.576 520.258 62.576C518.082 62.576 516.055 62.1493 514.178 61.296C510.935 59.8027 508.482 57.4987 506.818 54.384C505.282 51.5253 504.514 48.2187 504.514 44.464C504.514 40.7947 505.324 37.488 506.946 34.544C508.652 31.4293 511.106 29.1467 514.306 27.696C516.183 26.8427 518.103 26.416 520.066 26.416C523.65 26.416 526.679 27.824 529.154 30.64H529.218V30.576C529.346 30.1067 529.538 29.552 529.794 28.912C530.348 27.4187 531.415 26.672 532.994 26.672C535.596 26.672 536.898 28.4 536.898 31.856V57.2ZM520.834 33.904C518.06 33.904 515.97 35.0773 514.562 37.424C513.367 39.3867 512.77 41.84 512.77 44.784C512.77 47.5147 513.388 49.84 514.626 51.76C516.119 54.0213 518.146 55.152 520.706 55.152C523.522 55.152 525.655 54.0427 527.106 51.824C528.343 49.9467 528.962 47.5147 528.962 44.528C528.962 41.6267 528.364 39.216 527.17 37.296C525.719 35.0347 523.607 33.904 520.834 33.904ZM577.714 65.904C577.714 68.5493 576.391 69.872 573.746 69.872C571.74 69.872 570.738 68.5493 570.738 65.904V62H547.314V65.904C547.314 68.5493 546.268 69.872 544.178 69.872C541.618 69.872 540.338 68.5493 540.338 65.904V59.568C540.338 57.7333 540.828 56.5813 541.81 56.112C542.663 55.7707 543.538 55.4293 544.434 55.088C545.415 54.3627 545.906 52.8267 545.906 50.48V35.696C545.906 32.496 546.738 30.192 548.402 28.784C549.938 27.504 552.348 26.864 555.634 26.864H569.586C572.103 26.864 573.362 28.5707 573.362 31.984V55.664H573.874C576.434 55.6213 577.714 56.7733 577.714 59.12V65.904ZM565.362 55.664V33.456H556.082C554.332 33.456 553.458 34.3307 553.458 36.08V50.608C553.458 52.5707 553.031 54.256 552.178 55.664H565.362ZM612.783 44.592C612.783 49.6693 611.333 53.9147 608.431 57.328C605.402 60.912 601.391 62.704 596.399 62.704C591.493 62.704 587.482 60.8907 584.367 57.264C581.423 53.808 579.951 49.584 579.951 44.592C579.951 39.5147 581.402 35.2693 584.303 31.856C587.418 28.1867 591.45 26.352 596.399 26.352C601.434 26.352 605.466 28.1653 608.495 31.792C611.354 35.2053 612.783 39.472 612.783 44.592ZM596.399 33.584C593.626 33.584 591.493 34.7573 589.999 37.104C588.762 39.1093 588.143 41.584 588.143 44.528C588.143 47.4293 588.783 49.904 590.063 51.952C591.557 54.3413 593.669 55.536 596.399 55.536C599.173 55.536 601.285 54.3413 602.735 51.952C603.973 49.9467 604.591 47.472 604.591 44.528C604.591 41.6267 603.973 39.1733 602.735 37.168C601.242 34.7787 599.13 33.584 596.399 33.584ZM645.887 51.696C645.887 58.5653 641.428 62 632.511 62H622.847C619.903 62 618.431 60.4853 618.431 57.456V31.536C618.431 28.4213 619.881 26.864 622.783 26.864H631.807C640.041 26.864 644.159 30.0427 644.159 36.4C644.159 39.5573 642.793 41.9253 640.063 43.504C641.812 44.2293 643.22 45.3173 644.287 46.768C645.353 48.2187 645.887 49.8613 645.887 51.696ZM626.367 32.56V41.264H631.039C634.495 41.264 636.223 39.792 636.223 36.848C636.223 33.9893 634.516 32.56 631.103 32.56H626.367ZM637.695 51.696C637.695 48.4533 635.604 46.832 631.423 46.832H626.367V56.24H631.423C635.604 56.24 637.695 54.7253 637.695 51.696ZM682.471 44.592C682.471 49.6693 681.02 53.9147 678.119 57.328C675.089 60.912 671.079 62.704 666.087 62.704C661.18 62.704 657.169 60.8907 654.055 57.264C651.111 53.808 649.639 49.584 649.639 44.592C649.639 39.5147 651.089 35.2693 653.991 31.856C657.105 28.1867 661.137 26.352 666.087 26.352C671.121 26.352 675.153 28.1653 678.183 31.792C681.041 35.2053 682.471 39.472 682.471 44.592ZM666.087 33.584C663.313 33.584 661.18 34.7573 659.687 37.104C658.449 39.1093 657.831 41.584 657.831 44.528C657.831 47.4293 658.471 49.904 659.751 51.952C661.244 54.3413 663.356 55.536 666.087 55.536C668.86 55.536 670.972 54.3413 672.423 51.952C673.66 49.9467 674.279 47.472 674.279 44.528C674.279 41.6267 673.66 39.1733 672.423 37.168C670.929 34.7787 668.817 33.584 666.087 33.584ZM721.526 65.904C721.526 68.5493 720.204 69.872 717.558 69.872C715.553 69.872 714.55 68.5493 714.55 65.904V62H691.126V65.904C691.126 68.5493 690.081 69.872 687.99 69.872C685.43 69.872 684.15 68.5493 684.15 65.904V59.568C684.15 57.7333 684.641 56.5813 685.622 56.112C686.476 55.7707 687.35 55.4293 688.246 55.088C689.228 54.3627 689.718 52.8267 689.718 50.48V35.696C689.718 32.496 690.55 30.192 692.214 28.784C693.75 27.504 696.161 26.864 699.446 26.864H713.398C715.916 26.864 717.174 28.5707 717.174 31.984V55.664H717.686C720.246 55.6213 721.526 56.7733 721.526 59.12V65.904ZM709.174 55.664V33.456H699.894C698.145 33.456 697.27 34.3307 697.27 36.08V50.608C697.27 52.5707 696.844 54.256 695.99 55.664H709.174Z" fill="black"/>
<path d="M70.5007 15.2594C54.8873 15.2594 42.23 28.226 42.23 44.221C42.23 60.2161 54.8873 73.1827 70.5007 73.1827C86.1141 73.1827 98.7714 60.2161 98.7714 44.221V15.2594H70.5007Z" fill="#83EF60"/>
<path d="M70.4999 74.4418C54.2338 74.4418 41 60.8846 41 44.2209C41 27.5572 54.2338 14 70.4999 14H98.7706C99.4491 14 99.9998 14.5641 99.9998 15.2592V44.2209C99.9998 60.8846 86.766 74.4418 70.4999 74.4418ZM70.4999 16.5184C55.5889 16.5184 43.4583 28.9455 43.4583 44.2209C43.4583 59.4963 55.5889 71.9234 70.4999 71.9234C85.4108 71.9234 97.5414 59.4963 97.5414 44.2209V16.5184H70.4999Z" fill="#2D4D68"/>
<path d="M50.2192 64.3985C55.3565 69.8162 62.5447 73.1827 70.4998 73.1827C86.1132 73.1827 98.7705 60.2161 98.7705 44.221V15.2594C98.7705 15.2594 56.3792 58.0874 50.2192 64.3985Z" fill="#32AA77"/>
<path d="M70.4996 74.4421C62.4572 74.4421 54.9415 71.1871 49.3371 65.2757C48.8688 64.7821 48.8749 63.9945 49.35 63.5078C55.4423 57.2666 97.4827 14.7911 97.9074 14.363C98.2602 14.0066 98.7875 13.9027 99.2454 14.0979C99.702 14.2937 99.9995 14.7514 99.9995 15.2595V44.2212C99.9995 60.8849 86.7663 74.4421 70.4996 74.4421ZM51.9644 64.3937C56.9978 69.2592 63.5339 71.9237 70.4996 71.9237C85.4105 71.9237 97.5411 59.4966 97.5411 44.2212V18.2703C89.3082 26.5898 59.2669 56.9499 51.9644 64.3937Z" fill="#2D4D68"/>
<path d="M88.3225 41.7029H74.1872C73.5087 41.7029 72.958 41.1388 72.958 40.4437V25.9629C72.958 25.2678 73.5087 24.7037 74.1872 24.7037C74.8657 24.7037 75.4163 25.2678 75.4163 25.9629V39.1845H88.3225C89.001 39.1845 89.5517 39.7487 89.5517 40.4437C89.5517 41.1388 89.001 41.7029 88.3225 41.7029Z" fill="#2D4D68"/>
<path d="M82.177 55.554H60.6667C59.9882 55.554 59.4375 54.9898 59.4375 54.2948V32.2587C59.4375 31.5636 59.9882 30.9995 60.6667 30.9995C61.3452 30.9995 61.8958 31.5636 61.8958 32.2587V53.0356H82.177C82.8555 53.0356 83.4061 53.5997 83.4061 54.2948C83.4061 54.9898 82.8555 55.554 82.177 55.554Z" fill="#2D4D68"/>
<path d="M51.5962 64.3681C51.2864 64.3681 50.9766 64.2484 50.7406 64.0082C50.2681 63.5285 50.2681 62.7508 50.7406 62.2711L97.9344 14.3598C98.4063 13.8801 99.1735 13.8801 99.6455 14.3598C100.118 14.8395 100.118 15.6172 99.6455 16.0969L52.4517 64.0082C52.2157 64.2484 51.906 64.3681 51.5962 64.3681Z" fill="#2D4D68"/>
</svg>
