<svg width="252" height="227" viewBox="0 0 252 227" fill="none" xmlns="http://www.w3.org/2000/svg">
<path d="M169.509 82.8195C173.053 76.6125 175.219 69.5187 175.219 62.0703C175.219 37.5969 153.169 17.7344 126 17.7344C98.8312 17.7344 76.7812 37.5969 76.7812 62.0703C76.7812 63.1344 76.7812 64.1984 76.9781 65.0852C51.5812 72.8883 33.4688 94.3469 33.4688 119.707C33.4688 151.452 62.2125 177.344 97.4531 177.344H150.609C180.534 177.344 204.75 155.53 204.75 128.574C204.75 107.648 189.984 89.7359 169.509 82.8195Z" fill="#83EF60"/>
<path d="M76.7812 62.0703C76.7812 63.1344 76.7812 64.1984 76.9781 65.0852C51.5812 72.8883 33.4688 94.3469 33.4688 119.707C33.4688 151.452 62.2125 177.344 97.4531 177.344H117.141C81.9 177.344 53.1562 151.452 53.1562 119.707C53.1562 94.3469 71.2687 72.8883 96.6656 65.0852C96.6656 64.0211 96.4688 63.1344 96.4688 62.0703C96.4688 40.6117 113.4 22.7 135.844 18.6211C132.694 18.0891 129.347 17.7344 126 17.7344C98.8313 17.7344 76.7812 37.5969 76.7812 62.0703Z" fill="white"/>
<path d="M119.109 222.566C120.684 222.566 122.062 221.325 122.062 219.906V180.004H150.609C182.109 180.004 207.703 156.949 207.703 128.574C207.703 108.18 194.119 89.5586 173.447 81.4008C176.4 75.3711 178.172 68.632 178.172 62.0703C178.172 36.1781 154.744 15.0742 126 15.0742C97.2562 15.0742 73.8281 36.1781 73.8281 62.0703C73.8281 62.425 73.8281 62.957 73.8281 63.3117C47.8406 72.1789 30.5156 94.5242 30.5156 119.707C30.5156 152.87 60.6375 180.004 97.4531 180.004H116.156V219.906C116.156 221.325 117.534 222.566 119.109 222.566ZM97.4531 174.684C63.7875 174.684 36.4219 150.033 36.4219 119.707C36.4219 96.1203 53.1562 75.1937 77.7656 67.568C78.9469 67.2133 79.9313 66.1492 79.7344 64.9078C79.7344 64.0211 79.5375 62.957 79.5375 62.0703C79.7344 39.0156 100.406 20.3945 126 20.3945C151.594 20.3945 172.266 39.0156 172.266 62.0703C172.266 68.8094 170.494 75.5484 166.95 81.5781C166.556 82.2875 166.556 82.9969 166.753 83.7063C167.147 84.4156 167.738 84.9477 168.525 85.3023C188.409 92.0414 201.797 109.421 201.797 128.574C201.797 153.934 178.762 174.684 150.609 174.684H122.062V157.127L159.862 140.102C161.241 139.392 161.831 137.796 161.241 136.555C160.453 135.313 158.681 134.781 157.303 135.313L122.062 151.097V79.8047C122.062 78.3859 120.684 77.1445 119.109 77.1445C117.534 77.1445 116.156 78.3859 116.156 79.8047V115.628L81.1125 99.8445C79.7344 99.1352 77.9625 99.6672 77.175 101.086C76.3875 102.327 76.9781 103.923 78.5531 104.633L116.156 121.658V174.684H97.4531Z" fill="#62355C"/>
</svg>
