<svg width="331" height="42" viewBox="0 0 331 42" fill="none" xmlns="http://www.w3.org/2000/svg">
<path d="M66.832 11.6C66.832 11.98 66.752 12.36 66.592 12.74L58.252 32.75C57.832 33.75 57.202 34.25 56.362 34.25C55.842 34.25 55.432 34.08 55.132 33.74C54.832 33.42 54.682 33 54.682 32.48C54.682 32.12 54.782 31.7 54.982 31.22L56.692 27.17L50.212 12.83C50.032 12.43 49.942 12.06 49.942 11.72C49.942 11.2 50.102 10.76 50.422 10.4C50.742 10.04 51.162 9.86 51.682 9.86C52.422 9.86 53.022 10.36 53.482 11.36L58.612 22.52H58.672L63.202 11.48C63.642 10.4 64.262 9.86 65.062 9.86C66.242 9.86 66.832 10.44 66.832 11.6ZM83.5563 23.78C83.5563 26.1 82.9463 28.07 81.7263 29.69C80.3863 31.47 78.5963 32.36 76.3563 32.36C74.7163 32.36 73.3563 31.75 72.2763 30.53H72.1863V36.26C72.1863 37.96 71.5763 38.81 70.3563 38.81C69.0763 38.81 68.4363 37.96 68.4363 36.26V17.9C68.4363 16.26 69.0663 15.44 70.3263 15.44C71.1263 15.44 71.6663 15.81 71.9463 16.55C71.9863 16.73 72.0663 16.98 72.1863 17.3H72.2163C73.0763 16.02 74.4863 15.38 76.4463 15.38C78.7063 15.38 80.4863 16.24 81.7863 17.96C82.9663 19.5 83.5563 21.44 83.5563 23.78ZM79.7463 23.81C79.7463 22.45 79.4663 21.32 78.9063 20.42C78.2463 19.34 77.2763 18.8 75.9963 18.8C74.7163 18.8 73.7163 19.3 72.9963 20.3C72.3563 21.18 72.0363 22.29 72.0363 23.63V24.38C72.0363 25.6 72.3763 26.65 73.0563 27.53C73.7963 28.47 74.7663 28.94 75.9663 28.94C77.2663 28.94 78.2563 28.39 78.9363 27.29C79.4763 26.37 79.7463 25.21 79.7463 23.81ZM100.501 29.75C100.501 31.39 99.8909 32.21 98.6709 32.21C97.9109 32.21 97.4209 31.88 97.2009 31.22C97.1409 30.96 97.0409 30.6 96.9009 30.14H96.8409C95.7609 31.56 94.3809 32.27 92.7009 32.27C91.6809 32.27 90.7309 32.07 89.8509 31.67C88.3309 30.97 87.1809 29.89 86.4009 28.43C85.6809 27.09 85.3209 25.54 85.3209 23.78C85.3209 22.06 85.7009 20.51 86.4609 19.13C87.2609 17.67 88.4109 16.6 89.9109 15.92C90.7909 15.52 91.6909 15.32 92.6109 15.32C94.2909 15.32 95.7109 15.98 96.8709 17.3H96.9009V17.27C96.9609 17.05 97.0509 16.79 97.1709 16.49C97.4309 15.79 97.9309 15.44 98.6709 15.44C99.8909 15.44 100.501 16.25 100.501 17.87V29.75ZM92.9709 18.83C91.6709 18.83 90.6909 19.38 90.0309 20.48C89.4709 21.4 89.1909 22.55 89.1909 23.93C89.1909 25.21 89.4809 26.3 90.0609 27.2C90.7609 28.26 91.7109 28.79 92.9109 28.79C94.2309 28.79 95.2309 28.27 95.9109 27.23C96.4909 26.35 96.7809 25.21 96.7809 23.81C96.7809 22.45 96.5009 21.32 95.9409 20.42C95.2609 19.36 94.2709 18.83 92.9709 18.83ZM117.713 29.75C117.713 31.39 117.093 32.21 115.853 32.21C114.593 32.21 113.963 31.38 113.963 29.72V18.77H109.673C108.853 18.77 108.443 19.18 108.443 20V27.98C108.443 29.18 108.173 30.16 107.633 30.92C107.013 31.78 106.123 32.21 104.963 32.21C104.043 32.21 103.413 32.15 103.073 32.03C102.393 31.81 102.053 31.35 102.053 30.65C102.053 30.01 102.263 29.57 102.683 29.33C102.983 29.17 103.493 29.09 104.213 29.09C104.473 29.09 104.673 28.73 104.813 28.01C104.893 27.63 104.933 27.18 104.933 26.66V19.85C104.933 18.27 105.293 17.16 106.013 16.52C106.733 15.86 107.893 15.53 109.493 15.53H115.943C117.123 15.53 117.713 16.33 117.713 17.93V29.75ZM133.979 27.05C133.979 30.35 131.889 32 127.709 32H123.299C121.919 32 121.229 31.26 121.229 29.78V17.72C121.229 16.2 121.849 15.44 123.089 15.44C124.349 15.44 124.979 16.19 124.979 17.69V22.04C128.059 22.04 130.059 22.19 130.979 22.49C132.979 23.13 133.979 24.65 133.979 27.05ZM127.199 24.8H124.979V29.3H127.199C129.159 29.3 130.139 28.55 130.139 27.05C130.139 25.55 129.159 24.8 127.199 24.8ZM143.453 15.32C144.553 15.32 145.573 15.5 146.513 15.86C147.773 16.34 148.403 17.03 148.403 17.93C148.403 18.99 147.903 19.52 146.903 19.52C146.463 19.52 145.963 19.39 145.403 19.13C144.843 18.87 144.213 18.74 143.513 18.74C142.233 18.74 141.223 19.28 140.483 20.36C139.823 21.3 139.493 22.44 139.493 23.78C139.493 25.22 139.813 26.39 140.453 27.29C141.173 28.33 142.223 28.85 143.603 28.85C144.103 28.85 144.753 28.7 145.553 28.4C146.353 28.08 146.843 27.92 147.023 27.92C147.483 27.92 147.853 28.08 148.133 28.4C148.413 28.7 148.553 29.08 148.553 29.54C148.553 30.6 147.633 31.41 145.793 31.97C145.053 32.19 144.243 32.3 143.363 32.3C140.963 32.3 139.063 31.47 137.663 29.81C136.323 28.25 135.653 26.25 135.653 23.81C135.653 21.41 136.343 19.42 137.723 17.84C139.183 16.16 141.093 15.32 143.453 15.32ZM164.344 30.71C164.344 31.15 164.174 31.51 163.834 31.79C163.494 32.07 163.094 32.21 162.634 32.21C161.954 32.21 161.304 31.86 160.684 31.16L154.774 24.5V29.75C154.774 31.39 154.144 32.21 152.884 32.21C151.644 32.21 151.024 31.39 151.024 29.75V17.87C151.024 16.25 151.644 15.44 152.884 15.44C154.144 15.44 154.774 16.26 154.774 17.9V21.68L160.174 16.31C160.774 15.71 161.374 15.41 161.974 15.41C162.434 15.41 162.814 15.56 163.114 15.86C163.434 16.14 163.594 16.51 163.594 16.97C163.594 17.53 163.294 18.09 162.694 18.65L158.014 23L163.594 28.85C164.094 29.37 164.344 29.99 164.344 30.71ZM180.578 29.81C180.578 31.41 179.958 32.21 178.718 32.21C177.458 32.21 176.828 31.42 176.828 29.84V22.04L169.568 30.08C169.428 31.5 168.818 32.21 167.738 32.21C166.478 32.21 165.848 31.41 165.848 29.81V17.84C165.848 16.24 166.478 15.44 167.738 15.44C168.978 15.44 169.598 16.24 169.598 17.84V25.94L176.798 17.66C176.978 16.18 177.628 15.44 178.748 15.44C179.968 15.44 180.578 16.23 180.578 17.81V29.81ZM195.479 11.03C195.479 11.95 194.969 12.72 193.949 13.34C193.069 13.86 192.129 14.12 191.129 14.12C190.169 14.12 189.229 13.85 188.309 13.31C187.269 12.69 186.749 11.93 186.749 11.03C186.749 10.21 187.169 9.8 188.009 9.8C188.449 9.8 188.939 10.1 189.479 10.7C190.019 11.3 190.569 11.6 191.129 11.6C191.729 11.6 192.279 11.3 192.779 10.7C193.299 10.1 193.769 9.8 194.189 9.8C195.049 9.8 195.479 10.21 195.479 11.03ZM198.479 29.81C198.479 31.41 197.859 32.21 196.619 32.21C195.359 32.21 194.729 31.42 194.729 29.84V21.95L187.469 31.13C186.909 31.85 186.299 32.21 185.639 32.21C184.379 32.21 183.749 31.41 183.749 29.81V17.84C183.749 16.24 184.379 15.44 185.639 15.44C186.879 15.44 187.499 16.24 187.499 17.84V25.94L194.699 16.67C195.339 15.85 195.989 15.44 196.649 15.44C197.869 15.44 198.479 16.23 198.479 17.81V29.81ZM217.603 15.32C218.703 15.32 219.723 15.5 220.663 15.86C221.923 16.34 222.553 17.03 222.553 17.93C222.553 18.99 222.053 19.52 221.053 19.52C220.613 19.52 220.113 19.39 219.553 19.13C218.993 18.87 218.363 18.74 217.663 18.74C216.383 18.74 215.373 19.28 214.633 20.36C213.973 21.3 213.643 22.44 213.643 23.78C213.643 25.22 213.963 26.39 214.603 27.29C215.323 28.33 216.373 28.85 217.753 28.85C218.253 28.85 218.903 28.7 219.703 28.4C220.503 28.08 220.993 27.92 221.173 27.92C221.633 27.92 222.003 28.08 222.283 28.4C222.563 28.7 222.703 29.08 222.703 29.54C222.703 30.6 221.783 31.41 219.943 31.97C219.203 32.19 218.393 32.3 217.513 32.3C215.113 32.3 213.213 31.47 211.813 29.81C210.473 28.25 209.803 26.25 209.803 23.81C209.803 21.41 210.493 19.42 211.873 17.84C213.333 16.16 215.243 15.32 217.603 15.32ZM239.515 29.75C239.515 31.39 238.905 32.21 237.685 32.21C236.925 32.21 236.435 31.88 236.215 31.22C236.155 30.96 236.055 30.6 235.915 30.14H235.855C234.775 31.56 233.395 32.27 231.715 32.27C230.695 32.27 229.745 32.07 228.865 31.67C227.345 30.97 226.195 29.89 225.415 28.43C224.695 27.09 224.335 25.54 224.335 23.78C224.335 22.06 224.715 20.51 225.475 19.13C226.275 17.67 227.425 16.6 228.925 15.92C229.805 15.52 230.705 15.32 231.625 15.32C233.305 15.32 234.725 15.98 235.885 17.3H235.915V17.27C235.975 17.05 236.065 16.79 236.185 16.49C236.445 15.79 236.945 15.44 237.685 15.44C238.905 15.44 239.515 16.25 239.515 17.87V29.75ZM231.985 18.83C230.685 18.83 229.705 19.38 229.045 20.48C228.485 21.4 228.205 22.55 228.205 23.93C228.205 25.21 228.495 26.3 229.075 27.2C229.775 28.26 230.725 28.79 231.925 28.79C233.245 28.79 234.245 28.27 234.925 27.23C235.505 26.35 235.795 25.21 235.795 23.81C235.795 22.45 235.515 21.32 234.955 20.42C234.275 19.36 233.285 18.83 231.985 18.83ZM258.647 33.83C258.647 35.07 258.027 35.69 256.787 35.69C255.847 35.69 255.377 35.07 255.377 33.83V32H244.397V33.83C244.397 35.07 243.907 35.69 242.927 35.69C241.727 35.69 241.127 35.07 241.127 33.83V30.86C241.127 30 241.357 29.46 241.817 29.24C242.217 29.08 242.627 28.92 243.047 28.76C243.507 28.42 243.737 27.7 243.737 26.6V19.67C243.737 18.17 244.127 17.09 244.907 16.43C245.627 15.83 246.757 15.53 248.297 15.53H254.837C256.017 15.53 256.607 16.33 256.607 17.93V29.03H256.847C258.047 29.01 258.647 29.55 258.647 30.65V33.83ZM252.857 29.03V18.62H248.507C247.687 18.62 247.277 19.03 247.277 19.85V26.66C247.277 27.58 247.077 28.37 246.677 29.03H252.857ZM275.086 23.84C275.086 26.22 274.406 28.21 273.046 29.81C271.626 31.49 269.746 32.33 267.406 32.33C265.106 32.33 263.226 31.48 261.766 29.78C260.386 28.16 259.696 26.18 259.696 23.84C259.696 21.46 260.376 19.47 261.736 17.87C263.196 16.15 265.086 15.29 267.406 15.29C269.766 15.29 271.656 16.14 273.076 17.84C274.416 19.44 275.086 21.44 275.086 23.84ZM267.406 18.68C266.106 18.68 265.106 19.23 264.406 20.33C263.826 21.27 263.536 22.43 263.536 23.81C263.536 25.17 263.836 26.33 264.436 27.29C265.136 28.41 266.126 28.97 267.406 28.97C268.706 28.97 269.696 28.41 270.376 27.29C270.956 26.35 271.246 25.19 271.246 23.81C271.246 22.45 270.956 21.3 270.376 20.36C269.676 19.24 268.686 18.68 267.406 18.68ZM290.603 27.17C290.603 30.39 288.513 32 284.333 32H279.803C278.423 32 277.733 31.29 277.733 29.87V17.72C277.733 16.26 278.413 15.53 279.773 15.53H284.003C287.863 15.53 289.793 17.02 289.793 20C289.793 21.48 289.153 22.59 287.873 23.33C288.693 23.67 289.353 24.18 289.853 24.86C290.353 25.54 290.603 26.31 290.603 27.17ZM281.453 18.2V22.28H283.643C285.263 22.28 286.073 21.59 286.073 20.21C286.073 18.87 285.273 18.2 283.673 18.2H281.453ZM286.763 27.17C286.763 25.65 285.783 24.89 283.823 24.89H281.453V29.3H283.823C285.783 29.3 286.763 28.59 286.763 27.17ZM307.752 23.84C307.752 26.22 307.072 28.21 305.712 29.81C304.292 31.49 302.412 32.33 300.072 32.33C297.772 32.33 295.892 31.48 294.432 29.78C293.052 28.16 292.362 26.18 292.362 23.84C292.362 21.46 293.042 19.47 294.402 17.87C295.862 16.15 297.752 15.29 300.072 15.29C302.432 15.29 304.322 16.14 305.742 17.84C307.082 19.44 307.752 21.44 307.752 23.84ZM300.072 18.68C298.772 18.68 297.772 19.23 297.072 20.33C296.492 21.27 296.202 22.43 296.202 23.81C296.202 25.17 296.502 26.33 297.102 27.29C297.802 28.41 298.792 28.97 300.072 28.97C301.372 28.97 302.362 28.41 303.042 27.29C303.622 26.35 303.912 25.19 303.912 23.81C303.912 22.45 303.622 21.3 303.042 20.36C302.342 19.24 301.352 18.68 300.072 18.68ZM326.059 33.83C326.059 35.07 325.439 35.69 324.199 35.69C323.259 35.69 322.789 35.07 322.789 33.83V32H311.809V33.83C311.809 35.07 311.319 35.69 310.339 35.69C309.139 35.69 308.539 35.07 308.539 33.83V30.86C308.539 30 308.769 29.46 309.229 29.24C309.629 29.08 310.039 28.92 310.459 28.76C310.919 28.42 311.149 27.7 311.149 26.6V19.67C311.149 18.17 311.539 17.09 312.319 16.43C313.039 15.83 314.169 15.53 315.709 15.53H322.249C323.429 15.53 324.019 16.33 324.019 17.93V29.03H324.259C325.459 29.01 326.059 29.55 326.059 30.65V33.83ZM320.269 29.03V18.62H315.919C315.099 18.62 314.689 19.03 314.689 19.85V26.66C314.689 27.58 314.489 28.37 314.089 29.03H320.269Z" fill="black"/>
<path d="M18.4322 6.75C8.67645 6.75 0.767822 14.4731 0.767822 24C0.767822 33.5269 8.67645 41.25 18.4322 41.25C28.1879 41.25 36.0965 33.5269 36.0965 24V6.75H18.4322Z" fill="#83EF60"/>
<path d="M18.4323 42C8.26883 42 0 33.9251 0 24C0 14.0749 8.26883 6 18.4323 6H36.0967C36.5206 6 36.8647 6.336 36.8647 6.75V24C36.8647 33.9251 28.5959 42 18.4323 42ZM18.4323 7.5C9.11556 7.5 1.53603 14.9018 1.53603 24C1.53603 33.0982 9.11556 40.5 18.4323 40.5C27.7491 40.5 35.3287 33.0982 35.3287 24V7.5H18.4323Z" fill="#2D4D68"/>
<path d="M5.76025 36.018C8.97017 39.2449 13.4615 41.25 18.4321 41.25C28.1878 41.25 36.0964 33.5269 36.0964 24V6.75C36.0964 6.75 9.60916 32.259 5.76025 36.018Z" fill="#32AA77"/>
<path d="M18.4324 42C13.4073 42 8.71123 40.0612 5.20947 36.5403C4.91685 36.2463 4.92069 35.7772 5.21753 35.4874C9.02419 31.77 35.2922 6.47098 35.5576 6.21598C35.778 6.00373 36.1075 5.94185 36.3935 6.0581C36.6789 6.17473 36.8647 6.44735 36.8647 6.74998V24C36.8647 33.9251 28.5963 42 18.4324 42ZM6.8511 36.015C9.99612 38.913 14.08 40.5 18.4324 40.5C27.7492 40.5 35.3287 33.0982 35.3287 24V8.54323C30.1845 13.4985 11.4139 31.5813 6.8511 36.015Z" fill="#2D4D68"/>
<path d="M29.5684 22.5H20.7363C20.3123 22.5 19.9683 22.164 19.9683 21.75V13.125C19.9683 12.711 20.3123 12.375 20.7363 12.375C21.1602 12.375 21.5043 12.711 21.5043 13.125V21H29.5684C29.9924 21 30.3365 21.336 30.3365 21.75C30.3365 22.164 29.9924 22.5 29.5684 22.5Z" fill="#2D4D68"/>
<path d="M25.7285 30.75H12.2883C11.8643 30.75 11.5203 30.414 11.5203 30V16.875C11.5203 16.461 11.8643 16.125 12.2883 16.125C12.7122 16.125 13.0563 16.461 13.0563 16.875V29.25H25.7285C26.1525 29.25 26.4965 29.586 26.4965 30C26.4965 30.414 26.1525 30.75 25.7285 30.75Z" fill="#2D4D68"/>
<path d="M6.62075 36C6.42719 36 6.23363 35.9287 6.08619 35.7856C5.79093 35.4999 5.79093 35.0367 6.08619 34.751L35.5742 6.2143C35.8691 5.92857 36.3484 5.92857 36.6433 6.2143C36.9386 6.50003 36.9386 6.9632 36.6433 7.24894L7.15532 35.7856C7.00788 35.9287 6.81432 36 6.62075 36Z" fill="#2D4D68"/>
</svg>
